<svg id="Layer_1" enable-background="new 0 0 512 512" height="512" viewBox="0 0 512 512" width="512" xmlns="http://www.w3.org/2000/svg"><g><path d="m442.667 215.718c-7.85.704-103.569 8.824-121.575 11.993-22.967 4.042-43.309 11.099-79.017 29.905-35.77 18.839-62.059 34.827-101.374 44.285-33.539 8.076-68.331 2.525-100.947-6.974-7.616-2.22-21.019-9.323-32.253-12.568v63.327c4.86 1.362 10.044 1.793 15.113 2.195 22.837 1.783 112.421 8.747 133.713 3.978 28.494-6.372 51.57-26.574 78.24-38.445 37.623-16.747 63.509-31.255 101.22-42.447 52.555-15.59 113.993-26.578 168.714-31.097v-30.37c-23.913 2.329-42.57 4.491-61.834 6.218z" fill="#bf6724"/><g><path d="m474.5 212.557v.711c0 14.915-11.171 27.471-25.988 29.175-47.648 5.478-98.353 15.36-142.726 28.523-37.711 11.192-63.597 25.7-101.22 42.447-26.67 11.871-49.746 32.073-78.24 38.445-3.076.689-7.584 1.132-13.104 1.382 19.005.53 35.457.33 43.104-1.382 28.494-6.372 51.57-26.574 78.24-38.445 37.623-16.747 63.51-31.255 101.22-42.447 52.555-15.591 113.993-26.578 168.714-31.097v-30.369c-10.91 1.063-20.721 2.09-30 3.057z" fill="#a35418"/></g><circle cx="408.652" cy="351.312" fill="#f44336" r="28"/><path d="m408.652 323.313c-5.52 0-10.663 1.604-15 4.362 7.812 4.968 13 13.694 13 23.638s-5.188 18.67-13 23.638c4.337 2.758 9.479 4.362 15 4.362 15.464 0 28-12.536 28-28 0-15.465-12.536-28-28-28z" fill="#e53935"/><circle cx="416" cy="56.5" fill="#f44336" r="28"/><path d="m416 28.5c-5.52 0-10.663 1.604-15 4.362 7.812 4.968 13 13.694 13 23.638s-5.188 18.67-13 23.638c4.337 2.758 9.479 4.362 15 4.362 15.464 0 28-12.536 28-28s-12.536-28-28-28z" fill="#e53935"/><circle cx="465.488" cy="116.756" fill="#f44336" r="28"/><path d="m465.488 88.756c-5.52 0-10.663 1.604-15 4.362 7.812 4.968 13 13.694 13 23.638s-5.188 18.67-13 23.638c4.337 2.758 9.479 4.362 15 4.362 15.464 0 28-12.536 28-28s-12.536-28-28-28z" fill="#e53935"/><circle cx="344" cy="88.5" fill="#f44336" r="28"/><path d="m344 60.5c-5.52 0-10.663 1.604-15 4.362 7.812 4.968 13 13.694 13 23.638s-5.188 18.67-13 23.638c4.337 2.758 9.479 4.362 15 4.362 15.464 0 28-12.536 28-28s-12.536-28-28-28z" fill="#e53935"/><circle cx="428.257" cy="199.835" fill="#f44336" r="28"/><path d="m428.257 171.835c-5.52 0-10.663 1.604-15 4.362 7.812 4.968 13 13.694 13 23.638s-5.188 18.67-13 23.638c4.337 2.758 9.479 4.362 15 4.362 15.464 0 28-12.536 28-28s-12.536-28-28-28z" fill="#e53935"/><circle cx="313.017" cy="169.294" fill="#f44336" r="28"/><path d="m313.017 141.294c-5.52 0-10.663 1.604-15 4.362 7.812 4.968 13 13.694 13 23.638s-5.188 18.67-13 23.638c4.337 2.758 9.479 4.362 15 4.362 15.464 0 28-12.536 28-28s-12.536-28-28-28z" fill="#e53935"/><circle cx="388.864" cy="426.978" fill="#f44336" r="28"/><path d="m388.864 398.978c-5.52 0-10.663 1.604-15 4.362 7.812 4.968 13 13.694 13 23.638s-5.188 18.67-13 23.638c4.337 2.758 9.48 4.362 15 4.362 15.464 0 28-12.536 28-28s-12.536-28-28-28z" fill="#e53935"/><circle cx="298" cy="455.5" fill="#f44336" r="28"/><path d="m298 427.5c-5.52 0-10.663 1.604-15 4.362 7.812 4.968 13 13.694 13 23.638s-5.188 18.67-13 23.638c4.337 2.758 9.48 4.362 15 4.362 15.464 0 28-12.536 28-28s-12.536-28-28-28z" fill="#e53935"/><circle cx="326.745" cy="289.869" fill="#f44336" r="28"/><path d="m326.745 261.869c-5.52 0-10.663 1.604-15 4.362 7.812 4.968 13 13.694 13 23.638s-5.188 18.67-13 23.638c4.337 2.758 9.48 4.362 15 4.362 15.464 0 28-12.536 28-28s-12.536-28-28-28z" fill="#e53935"/><g><path d="m509.539 203.945c-1.565-1.421-3.653-2.112-5.767-1.91-10.311 1.005-19.532 1.968-28.45 2.898-4.143.432-8.172.852-12.136 1.259.375-2.063.571-4.188.571-6.357 0-19.575-15.925-35.5-35.5-35.5-9.152 0-17.507 3.482-23.808 9.19-3.42-3.372-6.137-6.594-7.912-8.843 5.496-13.713 9.826-26.784 13.194-38.368 5.209 2.771 12.339 5.294 21.035 5.294.803 0 1.62-.022 2.45-.067 5.617 12.215 17.97 20.717 32.273 20.717 19.575 0 35.5-15.925 35.5-35.5s-15.925-35.5-35.5-35.5c-19.519 0-35.408 15.834-35.499 35.332-7.416-.198-12.992-3.085-16.188-5.282 1.912-7.597 3.34-14.149 4.377-19.373 18.564-1.131 33.321-16.592 33.321-35.435 0-19.575-15.925-35.5-35.5-35.5s-35.5 15.925-35.5 35.5c0 15.115 9.495 28.054 22.835 33.165-1.184 5.902-2.874 13.499-5.215 22.387-.013.047-.025.094-.037.141-1.005 3.805-2.129 7.844-3.383 12.074-9.26-3.328-16.728-9.041-22.265-14.535 4.436-5.926 7.066-13.277 7.066-21.232 0-19.575-15.925-35.5-35.5-35.5s-35.5 15.925-35.5 35.5 15.924 35.5 35.499 35.5c6.195 0 12.023-1.595 17.098-4.396 6.965 7.075 16.676 14.642 29.073 18.972-3.544 10.523-7.828 21.806-12.972 33.333-6.262-2.414-16.394-5.596-28.946-6.958-2.148-17.534-17.13-31.157-35.235-31.157-19.575 0-35.5 15.925-35.5 35.5s15.925 35.5 35.5 35.5c15.884 0 29.365-10.486 33.884-24.899 10.177 1.138 18.524 3.656 23.857 5.629-5.206 10.384-11.135 20.801-17.872 30.885-15.12 1.53-27.564 2.939-33.095 3.914-35.722 6.283-62.407 20.55-96.012 38.536-29.076 15.565-52.043 27.86-84.836 35.75-27.433 6.609-58.286 4.424-97.093-6.878-2.968-.866-7.429-2.794-12.151-4.835-6.313-2.729-13.471-5.823-20.12-7.741-2.267-.653-4.704-.205-6.588 1.212s-2.992 3.636-2.992 5.993v63.33c0 3.364 2.239 6.316 5.479 7.223 5.671 1.587 11.446 2.042 16.541 2.444 4.115.33 7.74-2.748 8.066-6.887.326-4.129-2.758-7.741-6.887-8.066-2.618-.207-5.444-.43-8.2-.826v-46.606c2.969 1.195 5.947 2.482 8.748 3.693 5.387 2.329 10.039 4.34 13.905 5.467 41.422 12.064 74.724 14.307 104.802 7.061 34.663-8.34 59.567-21.671 88.404-37.108 31.882-17.068 57.996-31.089 91.532-36.987 12.919-2.276 69.292-7.337 82.538-8.523 6.243 5.454 14.406 8.762 23.327 8.762 11.2 0 21.204-5.213 27.715-13.34 6.806-.672 13.685-1.389 20.906-2.142 6.451-.673 13.063-1.363 20.122-2.073v15.215c-31.947 2.924-65.792 7.961-98.344 14.648-4.058.833-6.671 4.798-5.838 8.856.729 3.548 3.853 5.993 7.339 5.992.5 0 1.008-.05 1.517-.155 34.322-7.051 70.093-12.235 103.444-14.992 3.889-.322 6.882-3.572 6.882-7.475v-30.371c.002-2.116-.892-4.133-2.459-5.555zm-186.039-115.445c0-11.304 9.196-20.5 20.5-20.5s20.5 9.196 20.5 20.5-9.196 20.5-20.5 20.5-20.5-9.196-20.5-20.5zm-10.482 101.294c-11.304 0-20.5-9.196-20.5-20.5s9.196-20.5 20.5-20.5 20.5 9.196 20.5 20.5-9.197 20.5-20.5 20.5zm152.47-93.538c11.304 0 20.5 9.196 20.5 20.5s-9.196 20.5-20.5 20.5c-11.324 0-20.5-9.217-20.5-20.5 0-11.303 9.197-20.5 20.5-20.5zm-69.988-39.756c0-11.304 9.196-20.5 20.5-20.5s20.5 9.196 20.5 20.5-9.196 20.5-20.5 20.5-20.5-9.197-20.5-20.5zm-5.541 123.596c1.671 1.829 3.569 3.785 5.668 5.759-1.846 4.293-2.87 9.019-2.87 13.98 0 4.423.813 8.659 2.298 12.568-7.669.696-15.545 1.423-23.207 2.152 6.928-11.402 12.929-23.039 18.111-34.459zm38.298 40.239c-11.304 0-20.5-9.196-20.5-20.5s9.196-20.5 20.5-20.5 20.5 9.196 20.5 20.5c0 11.361-9.277 20.5-20.5 20.5z"/><path d="m408.652 315.813c-17.455 0-32.007 12.662-34.955 29.283-24.08 3.696-39.352 16.755-45.339 22.868-10.906-7.017-22.255-13.531-34.011-19.517 1.512-6.389 5.275-19.123 12.907-28.919 5.598 3.691 12.298 5.841 19.49 5.841 19.575 0 35.5-15.925 35.5-35.5 0-6.262-1.63-12.151-4.488-17.264 4.273-1.129 8.609-2.235 12.975-3.307 4.022-.988 6.483-5.049 5.495-9.072-.987-4.023-5.049-6.484-9.071-5.496-7.106 1.745-14.138 3.576-20.954 5.457-5.591-3.678-12.279-5.82-19.457-5.82-15.579 0-28.846 10.087-33.613 24.073-11.189 4.737-22.017 9.808-33.419 15.149-8.908 4.172-18.118 8.486-28.192 12.967-10.55 4.696-20.52 10.622-30.16 16.354-15.522 9.228-30.184 17.944-46.669 21.629-6.314 1.414-27.602 3.064-99.225-1.771-4.127-.282-7.709 2.845-7.988 6.978-.278 4.133 2.846 7.709 6.979 7.988 32.119 2.168 57.264 3.253 75.26 3.253 13.414 0 22.859-.603 28.25-1.811 20.132-4.501 37.293-15.238 54.846-25.622 1.828.655 11.091 2.162 31.156 9.372 3.872 1.392 8.185-.599 9.595-4.522 1.4-3.898-.624-8.194-4.522-9.594-6.7-2.407-12.558-4.293-17.374-5.734 1.977-.987 3.961-1.93 5.952-2.817 10.206-4.54 19.483-8.886 28.456-13.088 8.751-4.099 17.159-8.037 25.603-11.761.761 4.834 2.502 9.347 5.011 13.329-9.025 10.854-13.815 24.417-16.131 33.01-.436-.202-.872-.403-1.31-.603-3.767-1.724-8.216-.068-9.941 3.697-1.725 3.766-.069 8.217 3.697 9.942 6.811 3.119 13.491 6.414 20.034 9.88-4.501 8.888-14.607 32.627-9.602 58.457-12.333 5.57-20.937 17.986-20.937 32.374 0 19.575 15.925 35.5 35.5 35.5s35.5-15.925 35.5-35.5c0-19.536-15.861-35.436-35.383-35.499-3.873-20.678 4.346-40.472 8.062-48.032 18.68 10.872 36.132 23.201 52.177 36.873-3.169 5.311-4.992 11.514-4.992 18.136 0 19.575 15.925 35.5 35.5 35.5s35.5-15.925 35.5-35.5-15.925-35.5-35.5-35.5c-7.533 0-14.525 2.359-20.277 6.376-8.778-7.508-17.96-14.628-27.517-21.342 5.421-4.991 16.599-13.327 33.21-16.306 3.957 15.285 17.867 26.607 34.372 26.607 19.575 0 35.5-15.925 35.5-35.5s-15.924-35.496-35.5-35.496zm-81.907-46.444c11.304 0 20.5 9.196 20.5 20.5s-9.196 20.5-20.5 20.5-20.5-9.196-20.5-20.5 9.196-20.5 20.5-20.5zm-8.245 186.131c0 11.304-9.196 20.5-20.5 20.5s-20.5-9.196-20.5-20.5c0-9.839 6.967-18.081 16.227-20.052.1-.018.2-.039.3-.062 1.286-.253 2.614-.387 3.973-.387 11.304.001 20.5 9.197 20.5 20.501zm90.864-28.522c0 11.304-9.196 20.5-20.5 20.5s-20.5-9.196-20.5-20.5 9.196-20.5 20.5-20.5 20.5 9.196 20.5 20.5zm-.712-55.165c-11.118 0-20.197-8.897-20.492-19.945 0-.104-.002-.209-.006-.315-.001-.08-.001-.16-.001-.24 0-11.304 9.196-20.5 20.5-20.5s20.5 9.196 20.5 20.5-9.197 20.5-20.501 20.5z"/></g></g></svg>