<?xml version="1.0" encoding="iso-8859-1"?>
<!-- Generator: Adobe Illustrator 19.0.0, SVG Export Plug-In . SVG Version: 6.00 Build 0)  -->
<svg version="1.1" id="Capa_1" xmlns="http://www.w3.org/2000/svg" xmlns:xlink="http://www.w3.org/1999/xlink" x="0px" y="0px"
	 viewBox="0 0 512 512" style="enable-background:new 0 0 512 512;" xml:space="preserve">
<path style="fill:#358372;" d="M301.754,105.789L292.239,16h-72.482l-9.353,88.266c-4.516,42.618-12.577,84.818-24.741,125.912
	c-8.654,29.237-14.664,64.409-14.664,99.332V474.5c0,16.569,13.431,30,30,30h110c16.569,0,30-13.431,30-30V329.511
	c0-32.621-4.703-64.987-13.895-96.115C314.797,191.719,306.333,149.003,301.754,105.789z"/>
<path style="fill:#57AD97;" d="M265.942,482c16.569,0,30-13.431,30-30V329.511c0-32.621-4.703-64.987-13.895-96.115
	c-13.194-44.679-19.817-81.9-24.396-119.773l-1.652-59.134V16h-36.241l-8.476,79.984L211.281,96l-0.876,8.266
	c-0.714,6.741-1.528,13.469-2.422,20.187c-4.157,31.242-10.28,62.197-18.592,92.594c-1.2,4.389-2.436,8.768-3.728,13.133
	c-5.17,17.467-9.384,37.059-11.948,57.444c-0.282,2.245-0.545,4.499-0.786,6.761c-0.452,4.242-0.829,8.51-1.126,12.796
	c-0.17,2.448-0.315,4.9-0.432,7.357c-0.236,4.984-0.372,9.979-0.372,14.972V474.5c0,2.59,0.328,5.103,0.945,7.5H265.942z"/>
<path style="fill:#B08D78;" d="M170.999,329.51V446h170V329.511c0-11.214-0.569-22.397-1.672-33.511H172.753
	C171.625,307.06,170.999,318.297,170.999,329.51z"/>
<path style="fill:#D7BDAF;" d="M294.27,296H172.753c-2.484,24.335-1.754,29.061-1.754,150h124.944V329.511
	C295.942,318.297,295.373,307.114,294.27,296z"/>
<path style="fill:#D3562A;" d="M295.942,402.665c25.424-28.657,31.481-64.994,13.033-83.442c-3.827-3.827-8.432-6.585-13.571-8.349
	l-39.462,48.638L295.942,402.665z"/>
<path style="fill:#DE6A39;" d="M220.587,336.9c-29.289,29.289-37.204,68.862-17.677,88.388
	c19.526,19.526,59.099,11.612,88.388-17.678c1.617-1.618,3.158-3.271,4.645-4.946v-73.153c0-6.225-0.193-12.439-0.538-18.638
	C274.324,303.635,244.136,313.351,220.587,336.9z"/>
<path style="fill:#B08D78;" d="M298.942,7.5h-43V76h43c3.866,0,7-3.134,7-7V14.5C305.942,10.634,302.808,7.5,298.942,7.5z"/>
<path style="fill:#D7BDAF;" d="M282.942,66V17.5c0-5.523-4.477-10-10-10h-60c-3.866,0-7,3.134-7,7V69c0,3.866,3.134,7,7,7h60
	C278.465,76,282.942,71.523,282.942,66z"/>
<path d="M334.297,231.272c-12.113-41.02-20.553-83.504-25.085-126.272l-2.518-23.767c4.049-2.575,6.749-7.09,6.749-12.233V14.5
	c0-7.995-6.505-14.5-14.5-14.5h-86c-7.995,0-14.5,6.505-14.5,14.5V69c0,7.995,6.505,14.5,14.5,14.5h78.908l2.445,23.08
	c4.627,43.669,13.245,87.051,25.614,128.94c5.127,17.361,8.812,35.076,11.042,52.98H181.17c2.391-18.998,6.34-38.136,11.685-56.193
	c11.911-40.235,20.324-83.048,25.008-127.251c0.437-4.119-2.549-7.812-6.668-8.249c-4.118-0.434-7.813,2.55-8.248,6.668
	c-4.588,43.297-12.822,85.21-24.475,124.573c-6.334,21.399-10.787,44.266-13.111,66.731c-0.047,0.286-0.077,0.577-0.09,0.874
	c-1.16,11.48-1.771,22.851-1.771,33.856V474.5c0,20.678,16.822,37.5,37.5,37.5h110c20.678,0,37.5-16.822,37.5-37.5V329.511
	C348.499,296.238,343.721,263.186,334.297,231.272z M213.442,15h85v53.5h-85V15z M333.499,329.511V438.5h-78.713
	c16.756-5.555,33.29-16.666,46.767-31.858c20.619-23.242,29.763-51.618,23.861-74.055c-3.616-13.748-12.697-23.999-25.661-29.087
	h32.713C333.146,312.143,333.499,320.819,333.499,329.511z M292.969,316.967L292.969,316.967
	c9.225,3.167,15.428,9.888,17.938,19.436c4.571,17.38-3.505,41.043-20.575,60.285c-16.339,18.419-38.383,30.218-57.528,30.79
	c-7.139,0.216-17.186-1.087-24.591-8.492c-7.613-7.614-10.247-19.603-7.416-33.759c3.052-15.259,11.964-30.893,25.094-44.023
	c16.5-16.501,37.356-26.182,54.649-26.182C284.959,315.022,289.146,315.654,292.969,316.967z M258.905,303.5
	c-15.155,4.685-30.511,13.987-43.622,27.097c-15.2,15.201-25.569,33.557-29.195,51.688c-3.846,19.232,0.244,36.033,11.518,47.307
	c3.791,3.791,8.221,6.769,13.178,8.908h-32.285V329.51c0-8.484,0.384-17.198,1.11-26.01H258.905z M310.999,497h-110
	c-12.406,0-22.5-10.093-22.5-22.5v-21h155v21C333.499,486.907,323.405,497,310.999,497z"/>
<g>
</g>
<g>
</g>
<g>
</g>
<g>
</g>
<g>
</g>
<g>
</g>
<g>
</g>
<g>
</g>
<g>
</g>
<g>
</g>
<g>
</g>
<g>
</g>
<g>
</g>
<g>
</g>
<g>
</g>
</svg>
