<svg id="Capa_1" enable-background="new 0 0 512 512" height="512" viewBox="0 0 512 512" width="512" xmlns="http://www.w3.org/2000/svg"><g><path d="m512 256c0 48.85-13.69 94.5-37.43 133.34-6.13 10.03-12.94-3.779-20.36 5.281-4.05 4.95-8.27 9.74-12.67 14.36-46.63 49.05-112.52 79.63-185.54 79.63-22.84 0-44.97-2.99-66.04-8.61-52.66-14.01-98.64-44.4-132.17-85.38-7.42-9.06-14.23 4.749-20.36-5.281-23.74-38.84-37.43-84.49-37.43-133.34 0-42.09 10.16-81.81 28.17-116.84 2.92-5.71 6.06-11.29 9.4-16.73.83-1.36 1.68-2.72 2.54-4.06 9.29-14.54 20-28.08 31.95-40.42 14.12-14.59 29.97-27.5 47.21-38.41 12.06-7.64 24.8-14.29 38.12-19.85 30.35-12.69 63.66-19.69 98.61-19.69s68.26 7 98.61 19.69c13.32 5.56 26.06 12.21 38.12 19.85 17.24 10.91 33.09 23.82 47.21 38.41 11.95 12.34 22.66 25.88 31.95 40.42.86 1.34 1.71 2.7 2.54 4.06 3.34 5.44 6.48 11.02 9.4 16.73 18.01 35.03 28.17 74.75 28.17 116.84z" fill="#cbe2ff"/><g><path d="m485.639 118.37c13.219-9.586 21.871-25.049 22.025-42.54.004-.493.005-.986.003-1.479-.143-28.956-23.336-52.538-52.286-53.127-132.921-2.705-265.841-2.705-398.762 0-28.951.589-52.143 24.17-52.286 53.126-.002.493-.002.986.003 1.479.155 17.491 8.806 32.954 22.025 42.54z" fill="#d56b3d"/><path d="m507.67 93.74c0 .49 0 .99-.01 1.48-.15 17.49-8.8 32.95-22.02 42.54-.62.45-1.22.92-1.81 1.4-9.05 7.44-14.11 18.69-13.23 30.47 5.5 73.24 6.82 146.47 3.97 219.71-6.13 10.03-12.94 19.61-20.36 28.67-46.94 57.37-118.3 70.601-198.21 70.601s-151.27-13.231-198.21-70.601c-7.42-9.06-14.23-18.64-20.36-28.67-2.85-73.24-1.53-146.47 3.96-219.71.89-11.78-4.17-23.03-13.22-30.47-.59-.49-1.19-.95-1.81-1.4-13.22-9.59-21.87-25.05-22.02-42.54-.01-.49-.01-.99-.01-1.48.02-3.11.3-6.16.82-9.13 4.38-24.63 25.63-43.47 51.47-44 20.88-.42 41.77-.78 62.65-1.07 91.15-1.27 182.31-1.27 273.46 0 20.88.29 41.77.65 62.65 1.07 25.84.53 47.09 19.37 51.47 44 .52 2.97.8 6.02.82 9.13z" fill="#e7a52e"/><path d="m478.78 118.37c-1.17 1.42-2.53 2.72-4.09 3.87-.07.05-.13.09-.2.14-.02.01-.04.03-.06.05-15.69 11.4-24.2 29.56-22.77 48.62.16 2.1.31 4.21.46 6.32 3.48 48.46 5.1 97.25 4.87 146.02v.57c-.16 31.39-1.08 62.77-2.78 94.05-4.045 4.944-8.272 9.734-12.67 14.36-46.633 49.05-112.517 56.241-185.54 56.241-22.836 0-44.973 20.398-66.042 14.788-52.658-14.023-98.642-44.413-132.168-85.389-1.7-31.27-2.62-62.65-2.78-94.05v-.58c-.23-48.76 1.39-97.55 4.87-146.01.15-2.11.3-4.22.46-6.32 1.43-19.06-7.08-37.22-22.77-48.62-.02-.02-.04-.04-.06-.05-.06-.05-.13-.09-.19-.14-1.56-1.15-2.93-2.45-4.1-3.87-8.21-9.93-6.88-25.47 4.08-33.5 5.51-4.05 12.3-6.48 19.71-6.63 5.01-.1 10.03-.2 15.05-.29 61.13-1.15 122.93-1.73 183.94-1.73s122.81.58 183.94 1.73c5.02.09 10.04.19 15.05.29 7.41.15 14.2 2.58 19.71 6.62 10.96 8.03 12.3 23.58 4.08 33.51z" fill="#ffd064"/><g fill="#e7a52e"><circle cx="88.643" cy="143.661" r="12.189"/><circle cx="108.133" cy="112.227" r="12.189"/><circle cx="123.883" cy="143.661" r="12.189"/></g><g fill="#e7a52e"><circle cx="392.179" cy="389.989" r="12.189"/><circle cx="411.67" cy="358.555" r="12.189"/><circle cx="427.42" cy="389.989" r="12.189"/></g><path d="m431.93 394.21c8.96 9.57 10.71 24.15 9.61 38.16-32.09 33.75-73.29 58.76-119.66 71.07-13.76 3.66-27.98 6.2-42.55 7.51-7.68.7-15.47 1.05-23.33 1.05-22.84 0-44.97-2.99-66.04-8.61 6.03-11.38 8.84-24.05 4.32-36.87-14.51-41.13-88.07 16.94-111.52-48.66-23.46-65.61 88.61-160.54 29.97-160.54s-43.4-64.86-14.67-97.85c33.16-38.07 98.02-67.1 115.01-50.11s-4.71 26.17 16.99 47.87 112.02-80.47 160.89-54.35-33.79 101.09-7.11 127.78c26.69 26.68 59.24 1.94 72.29 25.34 18.42 33.03-95.24 87.35-84.6 113.47s38.11.94 60.4 24.74z" fill="#dd636e"/><path d="m211.22 463.63c2.45 6.94-1.56 25.66-6.71 43.17-4.9-.99-9.75-2.13-14.55-3.41 6.03-11.38 8.84-24.05 4.32-36.87-14.51-41.13-88.07 16.94-111.52-48.66-23.46-65.61 88.61-160.54 29.97-160.54s-43.4-64.86-14.67-97.85c26.03-29.9 71.61-54.21 98.22-55.05-26.26 7.38-60.19 27.94-81.28 52.16-28.73 32.99-43.97 97.85 14.67 97.85s-53.43 94.93-29.97 160.54c23.45 65.6 97.01 7.53 111.52 48.66z" fill="#da4a54"/></g><g fill="#da4a54"><path d="m177.373 306.141c16 22.702 175.521-140.108 156.86-152.388s-172.86 129.686-156.86 152.388z"/><path d="m165.99 393.064c11.493 16.307 126.08-100.642 112.676-109.463-13.405-8.821-124.169 93.156-112.676 109.463z"/><path d="m321.88 503.44c-13.76 3.66-27.98 6.2-42.55 7.51 28.11-35.22 89.79-87.84 99.57-81.39 7.49 4.92-24.93 43.55-57.02 73.88z"/></g></g></svg>